<svg width="33" height="25" viewBox="0 0 33 25" fill="none" xmlns="http://www.w3.org/2000/svg">
<path d="M28.8892 0.341727C29.24 0.116573 29.7064 0.22142 29.9318 0.572071C30.1583 0.924292 30.0571 1.39316 29.7112 1.62906C24.5149 5.17232 21.9168 8.71559 21.9168 12.2588C21.9168 13.1038 22.0829 13.7888 22.415 14.3139C23.209 15.5689 25.0039 14.9241 26.0921 13.9136C27.3683 12.7286 29.2808 12.2765 30.5699 13.4474C30.8657 13.7161 31.1516 14.0143 31.4277 14.3422C32.4542 15.4291 32.9675 16.8482 32.9675 18.5994C32.9675 20.3506 32.2731 21.8603 30.8842 23.1284C29.4953 24.3361 27.6535 24.94 25.3588 24.94C23.1245 24.94 21.2526 24.1852 19.7429 22.6755C18.2936 21.1055 17.569 18.9617 17.569 16.2444C17.569 10.4861 21.3424 5.18522 28.8892 0.341727ZM11.8602 0.341727C12.2111 0.116573 12.6774 0.22142 12.9028 0.572071C13.1293 0.924292 13.0281 1.39316 12.6822 1.62906C7.48594 5.17232 4.88782 8.71559 4.88782 12.2588C4.88782 13.1038 5.05389 13.7888 5.38605 14.3138C6.17997 15.5689 7.9749 14.9241 9.06316 13.9136C10.3393 12.7286 12.2518 12.2765 13.5409 13.4474C13.8367 13.7161 14.1226 14.0143 14.3987 14.3422C15.4253 15.4291 15.9385 16.8482 15.9385 18.5994C15.9385 20.3506 15.2441 21.8603 13.8552 23.1284C12.4663 24.3361 10.6245 24.94 8.32985 24.94C6.09555 24.94 4.22357 24.1852 2.71391 22.6755C1.26463 21.1055 0.539993 18.9617 0.539993 16.2444C0.539993 10.4861 4.31341 5.18522 11.8602 0.341727Z" fill="#FF0000" fill-opacity="0.5"/>
</svg>
